<svg fill="none" height="48" viewBox="0 0 48 48" width="48" xmlns="http://www.w3.org/2000/svg"><g fill="#000"><path d="m8.1357 45.9561c3.2716.2658 8.4629.5439 15.8643.5439s12.5927-.2781 15.8643-.5439c3.2878-.2671 5.8247-2.8039 6.0918-6.0918.2658-3.2716.5439-8.4629.5439-15.8643 0-3.7097-.0699-6.8642-.173-9.5h-44.65398c-.10316 2.6358-.17302 5.7903-.17302 9.5 0 7.4014.27808 12.5927.54389 15.8643.26713 3.2878 2.80396 5.8247 6.09181 6.0918z"/><path clip-rule="evenodd" d="m1.81512 11.5c.07249-1.2899.15115-2.40896.22877-3.3643.26713-3.28786 2.80396-5.82468 6.09182-6.09181 3.27159-.26582 8.46289-.54389 15.86429-.54389s12.5927.27808 15.8643.54389c3.2878.26713 5.8247 2.80396 6.0918 6.09181.0776.95534.1563 2.0744.2288 3.3643zm5.68488-4.5c0-.82843.67157-1.5 1.5-1.5h2c.8284 0 1.5.67157 1.5 1.5s-.6716 1.5-1.5 1.5h-2c-.82843 0-1.5-.67157-1.5-1.5zm9.5-1.5c-.8284 0-1.5.67157-1.5 1.5s.6716 1.5 1.5 1.5h2c.8284 0 1.5-.67157 1.5-1.5s-.6716-1.5-1.5-1.5z" fill-rule="evenodd"/></g></svg>